<?xml version="1.0" encoding="utf-8"?>
<!-- Generator: Adobe Illustrator 16.0.0, SVG Export Plug-In . SVG Version: 6.00 Build 0)  -->
<!DOCTYPE svg PUBLIC "-//W3C//DTD SVG 1.1//EN" "http://www.w3.org/Graphics/SVG/1.1/DTD/svg11.dtd">
<svg version="1.1" id="Ebene_1" xmlns="http://www.w3.org/2000/svg" xmlns:xlink="http://www.w3.org/1999/xlink" x="0px" y="0px"
	 width="12.834px" height="10.216px" viewBox="0 0 12.834 10.216" enable-background="new 0 0 12.834 10.216" xml:space="preserve">
<g>
	<defs>
		<rect id="SVGID_5_" x="0.758" y="0.561" width="11.572" height="9.076"/>
	</defs>
	<clipPath id="SVGID_2_">
		<use xlink:href="#SVGID_5_"  overflow="visible"/>
	</clipPath>
	<path clip-path="url(#SVGID_2_)" d="M7.09,4.326c-0.205,0.148-0.581,0.148-0.787,0L2.751,1.694h7.893L7.09,4.326z M0.758,0.561
		v0.957L5.63,5.219c0.298,0.22,0.68,0.327,1.062,0.327c0.391,0,0.773-0.107,1.072-0.327l4.566-3.481V0.561H0.758z M11.197,7.921
		L9.148,5.347L8.232,6.021l1.979,2.481H2.886L4.97,5.879L4.056,5.205L1.893,7.928V3.667L0.758,2.702v6.935h11.573V2.922
		l-1.135,0.957V7.921z"/>
</g>
</svg>
