<?xml version="1.0" encoding="utf-8"?>
<!-- Generator: Adobe Illustrator 16.0.0, SVG Export Plug-In . SVG Version: 6.00 Build 0)  -->
<!DOCTYPE svg PUBLIC "-//W3C//DTD SVG 1.1//EN" "http://www.w3.org/Graphics/SVG/1.1/DTD/svg11.dtd">
<svg version="1.1" id="Ebene_1" xmlns="http://www.w3.org/2000/svg" xmlns:xlink="http://www.w3.org/1999/xlink" x="0px" y="0px"
	 width="12.834px" height="12.404px" viewBox="0 0 12.834 12.404" enable-background="new 0 0 12.834 12.404" xml:space="preserve">
<g>
	<defs>
		<rect id="SVGID_9_" x="0.445" y="0.148" width="11.945" height="11.944"/>
	</defs>
	<clipPath id="SVGID_2_">
		<use xlink:href="#SVGID_9_"  overflow="visible"/>
	</clipPath>
	<path clip-path="url(#SVGID_2_)" d="M1.538,9.04c0.44-0.193,1.02-0.453,1.533-0.693c0.36-0.16,0.687-0.312,0.92-0.42
		c0.02-0.007,0.04-0.013,0.053-0.02c0.007,0,0.007,0.007,0.014,0.013l1.146,1.146l0.34-0.167c0.04-0.02,1.08-0.52,2.106-1.546
		c1.02-1.026,1.527-2.065,1.547-2.105l0.159-0.34L8.217,3.768C8.21,3.761,8.203,3.755,8.203,3.748
		c0.007-0.014,0.014-0.027,0.02-0.047c0.107-0.24,0.254-0.566,0.42-0.92c0.234-0.514,0.5-1.094,0.693-1.533h0.007
		c0.98,0.287,1.993,1.04,1.986,1.8c-0.013,0.979-0.899,3.233-2.826,5.159c-1.933,1.926-4.179,2.812-5.165,2.819H3.331
		c-0.76,0-1.506-1-1.793-1.973V9.04z M3.331,12.093h0.02c1.393-0.013,3.866-1.1,5.899-3.133c2.039-2.039,3.126-4.512,3.139-5.899
		c0.014-1.393-1.413-2.445-2.746-2.832c-0.14-0.04-0.293-0.08-0.44-0.08c-0.546,0-0.74,0.446-0.833,0.666
		C8.177,1.248,7.91,1.828,7.677,2.335C7.51,2.694,7.357,3.027,7.25,3.268c-0.2,0.453-0.233,0.808,0.214,1.246l0.593,0.601
		c-0.207,0.347-0.593,0.92-1.16,1.486s-1.146,0.953-1.493,1.16L4.811,7.167C4.697,7.054,4.457,6.813,4.098,6.813
		c-0.2,0-0.374,0.073-0.54,0.147c-0.234,0.105-0.574,0.26-0.934,0.42C2.118,7.614,1.538,7.88,1.105,8.074
		C0.492,8.34,0.332,8.7,0.518,9.347C0.905,10.673,1.951,12.093,3.331,12.093"/>
</g>
</svg>
